<svg xmlns="http://www.w3.org/2000/svg" viewBox="0 0 500 500" width="100%" height="100%">
  <rect width="500" height="500" rx="90" fill="rgb(0, 255, 213)" />

  <g id="qr-patterns" fill="#111827">
    <rect x="60" y="60" width="70" height="70" rx="20" />
    <rect x="74" y="74" width="42" height="42" rx="11" fill="rgb(0, 255, 213)" />
    <rect x="84" y="84" width="22" height="22" rx="6" />

    <rect x="370" y="60" width="70" height="70" rx="20" />
    <rect x="384" y="74" width="42" height="42" rx="11" fill="rgb(0, 255, 213)" />
    <rect x="394" y="84" width="22" height="22" rx="6" />

    <rect x="60" y="370" width="70" height="70" rx="20" />
    <rect x="74" y="384" width="42" height="42" rx="11" fill="rgb(0, 255, 213)" />
    <rect x="84" y="394" width="22" height="22" rx="6" />
  </g>

  <g fill="#111827" opacity="0.8">
    <rect x="370" y="370" width="20" height="20" rx="5" />
    <rect x="395" y="370" width="15" height="15" rx="4" />
    <rect x="370" y="395" width="15" height="15" rx="4" />
    <rect x="150" y="85" width="15" height="15" rx="4" />
    <rect x="85" y="150" width="15" height="15" rx="4" />
  </g>

  <g id="central-logo">
    <path d="M 145 158 Q 250 178 355 158 Q 365 288 250 378 Q 135 288 145 158 Z" fill="#111827" opacity="0.15" />
    
    <path d="M 140 150 Q 250 170 360 150 Q 370 280 250 370 Q 130 280 140 150 Z" fill="#FFFFFF" stroke="#111827" stroke-width="12" stroke-linejoin="round" />

    <path d="M 250 255 C 215 215, 175 215, 175 255 C 175 295, 215 295, 250 255 C 285 215, 325 215, 325 255 C 325 295, 285 295, 250 255 Z" 
          fill="none" stroke="#111827" stroke-width="14" stroke-linecap="round" stroke-linejoin="round" />

    <path d="M 232 295 Q 250 308 268 295" fill="none" stroke="#111827" stroke-width="6" stroke-linecap="round" />
    
    <rect x="200" y="195" width="10" height="10" rx="2" fill="rgb(0, 255, 213)" />
    <rect x="290" y="195" width="10" height="10" rx="2" fill="rgb(0, 255, 213)" />
  </g>
</svg>
